<?xml version="1.0" encoding="UTF-8" standalone="no"?>
<!DOCTYPE svg PUBLIC "-//W3C//DTD SVG 1.1//EN"
 "http://www.w3.org/Graphics/SVG/1.1/DTD/svg11.dtd">
<!-- Generated by graphviz version 2.43.0 (0)
 -->
<!-- Title: Tree Pages: 1 -->
<svg width="573pt" height="671pt"
 viewBox="0.00 0.00 573.00 671.00" xmlns="http://www.w3.org/2000/svg" xmlns:xlink="http://www.w3.org/1999/xlink">
<g id="graph0" class="graph" transform="scale(1 1) rotate(0) translate(4 667)">
<title>Tree</title>
<polygon fill="white" stroke="transparent" points="-4,4 -4,-667 569,-667 569,4 -4,4"/>
<!-- 0 -->
<g id="node1" class="node">
<title>0</title>
<path fill="#ffffff" stroke="black" d="M448,-663C448,-663 278,-663 278,-663 272,-663 266,-657 266,-651 266,-651 266,-592 266,-592 266,-586 272,-580 278,-580 278,-580 448,-580 448,-580 454,-580 460,-586 460,-592 460,-592 460,-651 460,-651 460,-657 454,-663 448,-663"/>
<text text-anchor="start" x="274" y="-647.8" font-family="Helvetica,sans-Serif" font-size="14.00">NUMERODECUOTAS ≤ 38.0</text>
<text text-anchor="start" x="335" y="-632.8" font-family="Helvetica,sans-Serif" font-size="14.00">gini = 0.5</text>
<text text-anchor="start" x="318" y="-617.8" font-family="Helvetica,sans-Serif" font-size="14.00">samples = 144</text>
<text text-anchor="start" x="316" y="-602.8" font-family="Helvetica,sans-Serif" font-size="14.00">value = [72, 72]</text>
<text text-anchor="start" x="308" y="-587.8" font-family="Helvetica,sans-Serif" font-size="14.00">class = No Riesgo</text>
</g>
<!-- 1 -->
<g id="node2" class="node">
<title>1</title>
<path fill="#efb286" stroke="black" d="M354,-544C354,-544 210,-544 210,-544 204,-544 198,-538 198,-532 198,-532 198,-473 198,-473 198,-467 204,-461 210,-461 210,-461 354,-461 354,-461 360,-461 366,-467 366,-473 366,-473 366,-532 366,-532 366,-538 360,-544 354,-544"/>
<text text-anchor="start" x="206" y="-528.8" font-family="Helvetica,sans-Serif" font-size="14.00">INGRESOS ≤ 1000000.0</text>
<text text-anchor="start" x="246.5" y="-513.8" font-family="Helvetica,sans-Serif" font-size="14.00">gini = 0.403</text>
<text text-anchor="start" x="237" y="-498.8" font-family="Helvetica,sans-Serif" font-size="14.00">samples = 100</text>
<text text-anchor="start" x="235" y="-483.8" font-family="Helvetica,sans-Serif" font-size="14.00">value = [72, 28]</text>
<text text-anchor="start" x="227" y="-468.8" font-family="Helvetica,sans-Serif" font-size="14.00">class = No Riesgo</text>
</g>
<!-- 0&#45;&gt;1 -->
<g id="edge1" class="edge">
<title>0&#45;&gt;1</title>
<path fill="none" stroke="black" d="M334.9,-579.91C328.74,-571.01 322.16,-561.51 315.81,-552.33"/>
<polygon fill="black" stroke="black" points="318.62,-550.25 310.05,-544.02 312.87,-554.24 318.62,-550.25"/>
<text text-anchor="middle" x="305.58" y="-564.92" font-family="Helvetica,sans-Serif" font-size="14.00">True</text>
</g>
<!-- 12 -->
<g id="node13" class="node">
<title>12</title>
<path fill="#399de5" stroke="black" d="M492.5,-536.5C492.5,-536.5 395.5,-536.5 395.5,-536.5 389.5,-536.5 383.5,-530.5 383.5,-524.5 383.5,-524.5 383.5,-480.5 383.5,-480.5 383.5,-474.5 389.5,-468.5 395.5,-468.5 395.5,-468.5 492.5,-468.5 492.5,-468.5 498.5,-468.5 504.5,-474.5 504.5,-480.5 504.5,-480.5 504.5,-524.5 504.5,-524.5 504.5,-530.5 498.5,-536.5 492.5,-536.5"/>
<text text-anchor="start" x="416" y="-521.3" font-family="Helvetica,sans-Serif" font-size="14.00">gini = 0.0</text>
<text text-anchor="start" x="403" y="-506.3" font-family="Helvetica,sans-Serif" font-size="14.00">samples = 44</text>
<text text-anchor="start" x="401" y="-491.3" font-family="Helvetica,sans-Serif" font-size="14.00">value = [0, 44]</text>
<text text-anchor="start" x="391.5" y="-476.3" font-family="Helvetica,sans-Serif" font-size="14.00">class = Si Riesgo</text>
</g>
<!-- 0&#45;&gt;12 -->
<g id="edge12" class="edge">
<title>0&#45;&gt;12</title>
<path fill="none" stroke="black" d="M391.1,-579.91C398.89,-568.65 407.36,-556.42 415.2,-545.11"/>
<polygon fill="black" stroke="black" points="418.22,-546.88 421.04,-536.67 412.47,-542.9 418.22,-546.88"/>
<text text-anchor="middle" x="425.51" y="-557.56" font-family="Helvetica,sans-Serif" font-size="14.00">False</text>
</g>
<!-- 2 -->
<g id="node3" class="node">
<title>2</title>
<path fill="#399de5" stroke="black" d="M232.5,-417.5C232.5,-417.5 135.5,-417.5 135.5,-417.5 129.5,-417.5 123.5,-411.5 123.5,-405.5 123.5,-405.5 123.5,-361.5 123.5,-361.5 123.5,-355.5 129.5,-349.5 135.5,-349.5 135.5,-349.5 232.5,-349.5 232.5,-349.5 238.5,-349.5 244.5,-355.5 244.5,-361.5 244.5,-361.5 244.5,-405.5 244.5,-405.5 244.5,-411.5 238.5,-417.5 232.5,-417.5"/>
<text text-anchor="start" x="156" y="-402.3" font-family="Helvetica,sans-Serif" font-size="14.00">gini = 0.0</text>
<text text-anchor="start" x="143" y="-387.3" font-family="Helvetica,sans-Serif" font-size="14.00">samples = 23</text>
<text text-anchor="start" x="141" y="-372.3" font-family="Helvetica,sans-Serif" font-size="14.00">value = [0, 23]</text>
<text text-anchor="start" x="131.5" y="-357.3" font-family="Helvetica,sans-Serif" font-size="14.00">class = Si Riesgo</text>
</g>
<!-- 1&#45;&gt;2 -->
<g id="edge2" class="edge">
<title>1&#45;&gt;2</title>
<path fill="none" stroke="black" d="M248,-460.91C238.39,-449.43 227.92,-436.94 218.29,-425.44"/>
<polygon fill="black" stroke="black" points="220.89,-423.09 211.78,-417.67 215.52,-427.58 220.89,-423.09"/>
</g>
<!-- 3 -->
<g id="node4" class="node">
<title>3</title>
<path fill="#e78a47" stroke="black" d="M487,-425C487,-425 275,-425 275,-425 269,-425 263,-419 263,-413 263,-413 263,-354 263,-354 263,-348 269,-342 275,-342 275,-342 487,-342 487,-342 493,-342 499,-348 499,-354 499,-354 499,-413 499,-413 499,-419 493,-425 487,-425"/>
<text text-anchor="start" x="271" y="-409.8" font-family="Helvetica,sans-Serif" font-size="14.00">MONTODELCREDITO ≤ 2500000.0</text>
<text text-anchor="start" x="345.5" y="-394.8" font-family="Helvetica,sans-Serif" font-size="14.00">gini = 0.121</text>
<text text-anchor="start" x="340" y="-379.8" font-family="Helvetica,sans-Serif" font-size="14.00">samples = 77</text>
<text text-anchor="start" x="338" y="-364.8" font-family="Helvetica,sans-Serif" font-size="14.00">value = [72, 5]</text>
<text text-anchor="start" x="326" y="-349.8" font-family="Helvetica,sans-Serif" font-size="14.00">class = No Riesgo</text>
</g>
<!-- 1&#45;&gt;3 -->
<g id="edge3" class="edge">
<title>1&#45;&gt;3</title>
<path fill="none" stroke="black" d="M316.35,-460.91C324.03,-451.83 332.24,-442.12 340.16,-432.77"/>
<polygon fill="black" stroke="black" points="342.93,-434.92 346.71,-425.02 337.58,-430.39 342.93,-434.92"/>
</g>
<!-- 4 -->
<g id="node5" class="node">
<title>4</title>
<path fill="#e6843e" stroke="black" d="M389,-306C389,-306 177,-306 177,-306 171,-306 165,-300 165,-294 165,-294 165,-235 165,-235 165,-229 171,-223 177,-223 177,-223 389,-223 389,-223 395,-223 401,-229 401,-235 401,-235 401,-294 401,-294 401,-300 395,-306 389,-306"/>
<text text-anchor="start" x="173" y="-290.8" font-family="Helvetica,sans-Serif" font-size="14.00">MONTODELCREDITO ≤ 1815000.0</text>
<text text-anchor="start" x="247.5" y="-275.8" font-family="Helvetica,sans-Serif" font-size="14.00">gini = 0.053</text>
<text text-anchor="start" x="242" y="-260.8" font-family="Helvetica,sans-Serif" font-size="14.00">samples = 74</text>
<text text-anchor="start" x="240" y="-245.8" font-family="Helvetica,sans-Serif" font-size="14.00">value = [72, 2]</text>
<text text-anchor="start" x="228" y="-230.8" font-family="Helvetica,sans-Serif" font-size="14.00">class = No Riesgo</text>
</g>
<!-- 3&#45;&gt;4 -->
<g id="edge4" class="edge">
<title>3&#45;&gt;4</title>
<path fill="none" stroke="black" d="M347,-341.91C339.4,-332.83 331.26,-323.12 323.43,-313.77"/>
<polygon fill="black" stroke="black" points="326.04,-311.44 316.94,-306.02 320.68,-315.93 326.04,-311.44"/>
</g>
<!-- 11 -->
<g id="node12" class="node">
<title>11</title>
<path fill="#399de5" stroke="black" d="M528.5,-298.5C528.5,-298.5 431.5,-298.5 431.5,-298.5 425.5,-298.5 419.5,-292.5 419.5,-286.5 419.5,-286.5 419.5,-242.5 419.5,-242.5 419.5,-236.5 425.5,-230.5 431.5,-230.5 431.5,-230.5 528.5,-230.5 528.5,-230.5 534.5,-230.5 540.5,-236.5 540.5,-242.5 540.5,-242.5 540.5,-286.5 540.5,-286.5 540.5,-292.5 534.5,-298.5 528.5,-298.5"/>
<text text-anchor="start" x="452" y="-283.3" font-family="Helvetica,sans-Serif" font-size="14.00">gini = 0.0</text>
<text text-anchor="start" x="442.5" y="-268.3" font-family="Helvetica,sans-Serif" font-size="14.00">samples = 3</text>
<text text-anchor="start" x="440.5" y="-253.3" font-family="Helvetica,sans-Serif" font-size="14.00">value = [0, 3]</text>
<text text-anchor="start" x="427.5" y="-238.3" font-family="Helvetica,sans-Serif" font-size="14.00">class = Si Riesgo</text>
</g>
<!-- 3&#45;&gt;11 -->
<g id="edge11" class="edge">
<title>3&#45;&gt;11</title>
<path fill="none" stroke="black" d="M415.35,-341.91C425.06,-330.43 435.63,-317.94 445.36,-306.44"/>
<polygon fill="black" stroke="black" points="448.15,-308.56 451.94,-298.67 442.8,-304.04 448.15,-308.56"/>
</g>
<!-- 5 -->
<g id="node6" class="node">
<title>5</title>
<path fill="#e5833c" stroke="black" d="M252,-187C252,-187 150,-187 150,-187 144,-187 138,-181 138,-175 138,-175 138,-116 138,-116 138,-110 144,-104 150,-104 150,-104 252,-104 252,-104 258,-104 264,-110 264,-116 264,-116 264,-175 264,-175 264,-181 258,-187 252,-187"/>
<text text-anchor="start" x="161.5" y="-171.8" font-family="Helvetica,sans-Serif" font-size="14.00">EDAD ≤ 32.5</text>
<text text-anchor="start" x="165.5" y="-156.8" font-family="Helvetica,sans-Serif" font-size="14.00">gini = 0.028</text>
<text text-anchor="start" x="160" y="-141.8" font-family="Helvetica,sans-Serif" font-size="14.00">samples = 71</text>
<text text-anchor="start" x="158" y="-126.8" font-family="Helvetica,sans-Serif" font-size="14.00">value = [70, 1]</text>
<text text-anchor="start" x="146" y="-111.8" font-family="Helvetica,sans-Serif" font-size="14.00">class = No Riesgo</text>
</g>
<!-- 4&#45;&gt;5 -->
<g id="edge5" class="edge">
<title>4&#45;&gt;5</title>
<path fill="none" stroke="black" d="M254.55,-222.91C248.32,-214.01 241.66,-204.51 235.22,-195.33"/>
<polygon fill="black" stroke="black" points="238,-193.2 229.4,-187.02 232.27,-197.22 238,-193.2"/>
</g>
<!-- 8 -->
<g id="node9" class="node">
<title>8</title>
<path fill="#f2c09c" stroke="black" d="M438,-187C438,-187 294,-187 294,-187 288,-187 282,-181 282,-175 282,-175 282,-116 282,-116 282,-110 288,-104 294,-104 294,-104 438,-104 438,-104 444,-104 450,-110 450,-116 450,-116 450,-175 450,-175 450,-181 444,-187 438,-187"/>
<text text-anchor="start" x="290" y="-171.8" font-family="Helvetica,sans-Serif" font-size="14.00">INGRESOS ≤ 3700000.0</text>
<text text-anchor="start" x="330.5" y="-156.8" font-family="Helvetica,sans-Serif" font-size="14.00">gini = 0.444</text>
<text text-anchor="start" x="328.5" y="-141.8" font-family="Helvetica,sans-Serif" font-size="14.00">samples = 3</text>
<text text-anchor="start" x="326.5" y="-126.8" font-family="Helvetica,sans-Serif" font-size="14.00">value = [2, 1]</text>
<text text-anchor="start" x="311" y="-111.8" font-family="Helvetica,sans-Serif" font-size="14.00">class = No Riesgo</text>
</g>
<!-- 4&#45;&gt;8 -->
<g id="edge8" class="edge">
<title>4&#45;&gt;8</title>
<path fill="none" stroke="black" d="M311.8,-222.91C318.11,-214.01 324.85,-204.51 331.36,-195.33"/>
<polygon fill="black" stroke="black" points="334.32,-197.2 337.25,-187.02 328.61,-193.15 334.32,-197.2"/>
</g>
<!-- 6 -->
<g id="node7" class="node">
<title>6</title>
<path fill="#e78946" stroke="black" d="M114,-68C114,-68 12,-68 12,-68 6,-68 0,-62 0,-56 0,-56 0,-12 0,-12 0,-6 6,0 12,0 12,0 114,0 114,0 120,0 126,-6 126,-12 126,-12 126,-56 126,-56 126,-62 120,-68 114,-68"/>
<text text-anchor="start" x="27.5" y="-52.8" font-family="Helvetica,sans-Serif" font-size="14.00">gini = 0.117</text>
<text text-anchor="start" x="22" y="-37.8" font-family="Helvetica,sans-Serif" font-size="14.00">samples = 16</text>
<text text-anchor="start" x="20" y="-22.8" font-family="Helvetica,sans-Serif" font-size="14.00">value = [15, 1]</text>
<text text-anchor="start" x="8" y="-7.8" font-family="Helvetica,sans-Serif" font-size="14.00">class = No Riesgo</text>
</g>
<!-- 5&#45;&gt;6 -->
<g id="edge6" class="edge">
<title>5&#45;&gt;6</title>
<path fill="none" stroke="black" d="M149.61,-103.73C137.66,-94.24 124.95,-84.16 113.05,-74.72"/>
<polygon fill="black" stroke="black" points="114.98,-71.77 104.97,-68.3 110.62,-77.26 114.98,-71.77"/>
</g>
<!-- 7 -->
<g id="node8" class="node">
<title>7</title>
<path fill="#e58139" stroke="black" d="M258,-68C258,-68 156,-68 156,-68 150,-68 144,-62 144,-56 144,-56 144,-12 144,-12 144,-6 150,0 156,0 156,0 258,0 258,0 264,0 270,-6 270,-12 270,-12 270,-56 270,-56 270,-62 264,-68 258,-68"/>
<text text-anchor="start" x="179" y="-52.8" font-family="Helvetica,sans-Serif" font-size="14.00">gini = 0.0</text>
<text text-anchor="start" x="166" y="-37.8" font-family="Helvetica,sans-Serif" font-size="14.00">samples = 55</text>
<text text-anchor="start" x="164" y="-22.8" font-family="Helvetica,sans-Serif" font-size="14.00">value = [55, 0]</text>
<text text-anchor="start" x="152" y="-7.8" font-family="Helvetica,sans-Serif" font-size="14.00">class = No Riesgo</text>
</g>
<!-- 5&#45;&gt;7 -->
<g id="edge7" class="edge">
<title>5&#45;&gt;7</title>
<path fill="none" stroke="black" d="M203.23,-103.73C203.68,-95.52 204.16,-86.86 204.61,-78.56"/>
<polygon fill="black" stroke="black" points="208.12,-78.48 205.18,-68.3 201.13,-78.09 208.12,-78.48"/>
</g>
<!-- 9 -->
<g id="node10" class="node">
<title>9</title>
<path fill="#399de5" stroke="black" d="M408.5,-68C408.5,-68 311.5,-68 311.5,-68 305.5,-68 299.5,-62 299.5,-56 299.5,-56 299.5,-12 299.5,-12 299.5,-6 305.5,0 311.5,0 311.5,0 408.5,0 408.5,0 414.5,0 420.5,-6 420.5,-12 420.5,-12 420.5,-56 420.5,-56 420.5,-62 414.5,-68 408.5,-68"/>
<text text-anchor="start" x="332" y="-52.8" font-family="Helvetica,sans-Serif" font-size="14.00">gini = 0.0</text>
<text text-anchor="start" x="322.5" y="-37.8" font-family="Helvetica,sans-Serif" font-size="14.00">samples = 1</text>
<text text-anchor="start" x="320.5" y="-22.8" font-family="Helvetica,sans-Serif" font-size="14.00">value = [0, 1]</text>
<text text-anchor="start" x="307.5" y="-7.8" font-family="Helvetica,sans-Serif" font-size="14.00">class = Si Riesgo</text>
</g>
<!-- 8&#45;&gt;9 -->
<g id="edge9" class="edge">
<title>8&#45;&gt;9</title>
<path fill="none" stroke="black" d="M363.77,-103.73C363.32,-95.52 362.84,-86.86 362.39,-78.56"/>
<polygon fill="black" stroke="black" points="365.87,-78.09 361.82,-68.3 358.88,-78.48 365.87,-78.09"/>
</g>
<!-- 10 -->
<g id="node11" class="node">
<title>10</title>
<path fill="#e58139" stroke="black" d="M553,-68C553,-68 451,-68 451,-68 445,-68 439,-62 439,-56 439,-56 439,-12 439,-12 439,-6 445,0 451,0 451,0 553,0 553,0 559,0 565,-6 565,-12 565,-12 565,-56 565,-56 565,-62 559,-68 553,-68"/>
<text text-anchor="start" x="474" y="-52.8" font-family="Helvetica,sans-Serif" font-size="14.00">gini = 0.0</text>
<text text-anchor="start" x="464.5" y="-37.8" font-family="Helvetica,sans-Serif" font-size="14.00">samples = 2</text>
<text text-anchor="start" x="462.5" y="-22.8" font-family="Helvetica,sans-Serif" font-size="14.00">value = [2, 0]</text>
<text text-anchor="start" x="447" y="-7.8" font-family="Helvetica,sans-Serif" font-size="14.00">class = No Riesgo</text>
</g>
<!-- 8&#45;&gt;10 -->
<g id="edge10" class="edge">
<title>8&#45;&gt;10</title>
<path fill="none" stroke="black" d="M416.64,-103.73C428.42,-94.24 440.95,-84.16 452.67,-74.72"/>
<polygon fill="black" stroke="black" points="455.05,-77.3 460.64,-68.3 450.66,-71.84 455.05,-77.3"/>
</g>
</g>
</svg>